# xmcd CD database file
#
# Track frame offsets:
#	150
#	16072
#	30452
#	43517
#	57927
#	70907
#	83840
#	112055
#	126052
#	139950
#	151702
#	163855
#	178612
#	191952
#	206610
#	237545
#	249520
#	263202
#	276657
#	288715
#	301635
#	317297
#
# Disc length: 4411 seconds
#
# Revision: 0
# Processed by: cddbd v1.5.2PL0 Copyright (c) Steve Scherf et al.
# Submitted via: CDex 1.51
#
DISCID=3e113916
DTITLE=Billy Mayerl - Vol. 2 - Original Recordings 1934-1946
DYEAR=1934
DGENRE=Jazz
TTITLE0=Side By Side
TTITLE1=Intro-Country Wedding-The Dance Goes On-If I Breathe On Windows
TTITLE2=Four Aces Suite: Ace Of Hearts
TTITLE3=Bats In The Belfry
TTITLE4=Nimble-Fingered Gentleman
TTITLE5=Mistletoe
TTITLE6=Crazy Days (piano selection)
TTITLE7=Aquarium Suite: i. Willow Moss
TTITLE8=Aquarium Suite: ii. Moorish Idol
TTITLE9=Aquarium Suite: iii. Fantail
TTITLE10=Aquarium Suite: iv. Whirligig
TTITLE11=Orange Blossom
TTITLE12=Parade Of The Sandwich-Board Men
TTITLE13=Phil The Fluter's Ball
TTITLE14=Runaway Love (selection)
TTITLE15=Stepping Tones Suite: Hop-O'-My-Thumb
TTITLE16=Fools Rush In
TTITLE17=All The Things You Are
TTITLE18=Sweet Nothings
TTITLE19=Sweet William
TTITLE20=Resting
TTITLE21=Fireside Fusiliers
EXTD=YEAR: 1934
EXTT0=
EXTT1=
EXTT2=
EXTT3=
EXTT4=
EXTT5=
EXTT6=
EXTT7=
EXTT8=
EXTT9=
EXTT10=
EXTT11=
EXTT12=
EXTT13=
EXTT14=
EXTT15=
EXTT16=
EXTT17=
EXTT18=
EXTT19=
EXTT20=
EXTT21=
PLAYORDER=
